<svg xmlns="http://www.w3.org/2000/svg" enable-background="new 0 0 512 512" viewBox="0 0 512 512"><path fill="#3179af" d="M417 115h50c5.5 0 10 4.5 10 10v90h-70v-90C407 119.5 411.5 115 417 115zM145 115H95c-5.5 0-10 4.5-10 10v90h70v-90C155 119.5 150.5 115 145 115zM55 133.5H35c-5.5 0-10 4.5-10 10V215h40v-71.5C65 138 60.5 133.5 55 133.5z"/><path fill="#9cd3fc" d="M487,437H25c-11,0-20-9-20-20V175c0-11,9-20,20-20h462c11,0,20,9,20,20v242C507,428,498,437,487,437z"/><rect width="30" height="282" x="85" y="155" fill="#6abdfb"/><rect width="502" height="182" x="5" y="215" fill="#d84861"/><rect width="30" height="182" x="85" y="215" fill="#c12944"/><path fill="#d84861" d="M334.8,75H227.2c-3.8,0-7.3,2.1-8.9,5.5L196,125v50c0,5.5,4.5,10,10,10h150c5.5,0,10-4.5,10-10v-50l-22.2-44.5C342.1,77.1,338.6,75,334.8,75z"/><path fill="#e17084" d="M366,125H196l22.2-44.5c1.7-3.4,5.2-5.5,8.9-5.5h107.6c3.8,0,7.3,2.1,8.9,5.5L366,125z"/><circle cx="155" cy="185" r="15" fill="#3179af"/><circle cx="162.5" cy="374.5" r="22.5" fill="#ffc970"/><circle cx="281" cy="311" r="126" fill="#3179af"/><circle cx="281" cy="311" r="96" fill="#265e87"/><circle cx="281" cy="311" r="30" fill="#3179af"/><circle cx="251" cy="281" r="30" fill="#4893cc"/><path fill="#4d2162" d="M477 160h-70c-2.8 0-5-2.2-5-5v-30c0-8.3 6.7-15 15-15h50c8.3 0 15 6.7 15 15v30C482 157.8 479.8 160 477 160zM412 150h60v-25c0-2.8-2.2-5-5-5h-50c-2.8 0-5 2.2-5 5V150zM281 442c-72.2 0-131-58.8-131-131s58.8-131 131-131 131 58.8 131 131S353.2 442 281 442zM281 190c-66.7 0-121 54.3-121 121s54.3 121 121 121 121-54.3 121-121S347.7 190 281 190z"/><path fill="#4d2162" d="M281,412c-55.7,0-101-45.3-101-101s45.3-101,101-101s101,45.3,101,101S336.7,412,281,412z M281,220c-50.2,0-91,40.8-91,91s40.8,91,91,91s91-40.8,91-91S331.2,220,281,220z"/><path fill="#4d2162" d="M281 346c-19.3 0-35-15.7-35-35s15.7-35 35-35 35 15.7 35 35S300.3 346 281 346zM281 286c-13.8 0-25 11.2-25 25s11.2 25 25 25 25-11.2 25-25S294.8 286 281 286zM356 190H206c-8.3 0-15-6.7-15-15v-50c0-.8.2-1.5.5-2.2l22.2-44.5c2.6-5.1 7.7-8.3 13.4-8.3h107.6c5.7 0 10.9 3.2 13.4 8.3l22.2 44.5c.3.7.5 1.5.5 2.2v50C371 183.3 364.3 190 356 190zM201 126.2V175c0 2.8 2.2 5 5 5h150c2.8 0 5-2.2 5-5v-48.8l-21.7-43.4c-.9-1.7-2.6-2.8-4.5-2.8H227.2c-1.9 0-3.6 1.1-4.5 2.8L201 126.2z"/><rect width="170" height="10" x="196" y="120" fill="#4d2162"/><path fill="#4d2162" d="M155 160H85c-2.8 0-5-2.2-5-5v-30c0-8.3 6.7-15 15-15h50c8.3 0 15 6.7 15 15v30C160 157.8 157.8 160 155 160zM90 150h60v-25c0-2.8-2.2-5-5-5H95c-2.8 0-5 2.2-5 5V150zM65 160H25c-2.8 0-5-2.2-5-5v-11.5c0-8.3 6.7-15 15-15h20c8.3 0 15 6.7 15 15V155C70 157.8 67.8 160 65 160zM30 150h30v-6.5c0-2.8-2.2-5-5-5H35c-2.8 0-5 2.2-5 5V150zM155 205c-11 0-20-9-20-20s9-20 20-20 20 9 20 20S166 205 155 205zM155 175c-5.5 0-10 4.5-10 10s4.5 10 10 10 10-4.5 10-10S160.5 175 155 175zM162.5 402c-15.2 0-27.5-12.3-27.5-27.5 0-15 11.7-27 26.7-27.5l.3 10c-9.5.3-17 8-17 17.5 0 9.6 7.9 17.5 17.5 17.5 5.7 0 11-2.8 14.3-7.4l8.2 5.8C179.8 397.7 171.4 402 162.5 402z"/><rect width="10" height="212" x="80" y="185" fill="#4d2162"/><path fill="#4d2162" d="M487,442H25c-13.8,0-25-11.2-25-25V175c0-13.8,11.2-25,25-25h151v10H25c-8.3,0-15,6.7-15,15v242c0,8.3,6.7,15,15,15h462c8.3,0,15-6.7,15-15V175c0-8.3-6.7-15-15-15H366v-10h121c13.8,0,25,11.2,25,25v242C512,430.8,500.8,442,487,442z"/><rect width="194.4" height="10" x="5" y="210" fill="#4d2162"/><rect width="183.9" height="10" x="5" y="392" fill="#4d2162"/><rect width="113.9" height="10" x="393.1" y="392" fill="#4d2162"/><rect width="144.4" height="10" x="362.6" y="210" fill="#4d2162"/></svg>