<svg xmlns="http://www.w3.org/2000/svg" viewBox="0 0 512 512"><g data-name="6. Diploma"><rect width="496" height="352" x="8" y="104" fill="#ead590" rx="32"/><path fill="#f1cb66" d="M472,432H40A32,32,0,0,1,8,400v24a32,32,0,0,0,32,32H472a32,32,0,0,0,32-32V400A32,32,0,0,1,472,432Z"/><path d="M304 464H40A40 40 0 010 424V136A40 40 0 0140 96H272a8 8 0 010 16H40a24 24 0 00-24 24V424a24 24 0 0024 24H304a8 8 0 010 16zM472 464H336a8 8 0 010-16H472a24 24 0 0024-24V136a24 24 0 00-24-24H304a8 8 0 010-16H472a40 40 0 0140 40V424A40 40 0 01472 464z"/><path fill="#f6f6f6" d="M472,176V384a40,40,0,0,0-40,40H80a40,40,0,0,0-40-40V176a40,40,0,0,0,40-40H432A40,40,0,0,0,472,176Z"/><path d="M432,432H80a8,8,0,0,1-8-8,32,32,0,0,0-32-32,8,8,0,0,1-8-8V176a8,8,0,0,1,8-8,32,32,0,0,0,32-32,8,8,0,0,1,8-8H432a8,8,0,0,1,8,8,32,32,0,0,0,32,32,8,8,0,0,1,8,8V384a8,8,0,0,1-8,8,32,32,0,0,0-32,32A8,8,0,0,1,432,432ZM87.33,416H424.67A48.12,48.12,0,0,1,464,376.67V183.33A48.12,48.12,0,0,1,424.67,144H87.33A48.12,48.12,0,0,1,48,183.33V376.67A48.12,48.12,0,0,1,87.33,416Z"/><polygon fill="#cd4f5f" points="416 384 416 504 376 496 336 504 336 384 416 384"/><path d="M416,512c-1.14,0,2.14.59-40-7.84l-38.43,7.68A8,8,0,0,1,328,504V384a8,8,0,0,1,8-8h80a8,8,0,0,1,8,8V504A8,8,0,0,1,416,512Zm-40-24c1.13,0-1.19-.4,32,6.24V392H344V494.24C377.24,487.59,374.87,488,376,488Z"/><circle cx="376" cy="400" r="64" fill="#b1da7a"/><path fill="#96bf5b" d="M376,440a64,64,0,0,1-62.86-52,64,64,0,1,0,125.72,0A64,64,0,0,1,376,440Z"/><path d="M376,472a72,72,0,1,1,72-72A72.08,72.08,0,0,1,376,472Zm0-128a56,56,0,1,0,56,56A56.06,56.06,0,0,0,376,344Z"/><circle cx="376" cy="400" r="32" fill="#73cab2"/><path d="M376,440a40,40,0,1,1,40-40A40,40,0,0,1,376,440Zm0-64a24,24,0,1,0,24,24A24,24,0,0,0,376,376Z"/><polygon fill="#4c5657" points="272 136 192 176 112 136 112 64 272 64 272 136"/><polygon fill="#3f494b" points="112 112 112 136 192 176 272 136 272 112 192 152 112 112"/><path d="M188.42,183.16l-80-40A8,8,0,0,1,104,136V64a8,8,0,0,1,8-8H272a8,8,0,0,1,8,8v72a8,8,0,0,1-4.42,7.16l-80,40A8,8,0,0,1,188.42,183.16ZM120,131.06l72,36,72-36V72H120ZM272,136h0Z"/><polygon fill="#596060" points="304 64 192 120 80 64 192 8 304 64"/><polygon fill="#4c5657" points="192 96 104 52 80 64 192 120 304 64 280 52 192 96"/><path d="M188.42 127.16l-112-56a8 8 0 010-14.32l112-56a8 8 0 017.16 0l112 56a8 8 0 010 14.32l-112 56A8 8 0 01188.42 127.16zM97.89 64L192 111.06 286.11 64 192 16.94zM344 224H168a8 8 0 010-16H344a8 8 0 010 16zM400 264H112a8 8 0 010-16H400a8 8 0 010 16zM400 304H112a8 8 0 010-16H400a8 8 0 010 16zM176 392H112a8 8 0 010-16h64a8 8 0 010 16z"/></g></svg>