<svg xmlns="http://www.w3.org/2000/svg" viewBox="0 0 128 128"><circle cx="45.34" cy="44.73" r="35.9" fill="#488bc9" transform="rotate(-77.27 45.335 44.725)"/><path fill="#ab7311" d="M42.69,17.24H48A15.18,15.18,0,0,1,63.17,32.42V37.6A7.13,7.13,0,0,1,56,44.73H34.64a7.13,7.13,0,0,1-7.13-7.13V32.42A15.18,15.18,0,0,1,42.69,17.24Z"/><path fill="#dee7f4" d="M68.32,72.31a35.89,35.89,0,0,1-46.18-.19,10.29,10.29,0,0,1,5.2-6A45.24,45.24,0,0,1,40.9,62.29a39.25,39.25,0,0,1,8.6,0A44.14,44.14,0,0,1,63,66.08,10.27,10.27,0,0,1,68.32,72.31Z"/><path fill="#f1bab4" d="M35.65 42.23a5.06 5.06 0 01-4.78 5.06 1.37 1.37 0 01-.29 0 5.08 5.08 0 110-10.15h0A5.07 5.07 0 0135.65 42.23zM64.9 42.23a5.08 5.08 0 11-5.08-5.08A5.09 5.09 0 0164.9 42.23z"/><polygon fill="#f1bab4" points="49.51 62.27 45.2 66.35 40.89 62.27 40.89 49.14 49.51 49.14 49.51 62.27"/><path fill="#fbd5d2" d="M59.82,37.16v7.52a15,15,0,0,1-.23,2.62,14.66,14.66,0,0,1-29-3V37.16h0c6.27,0,9.11-7.52,9.11-7.52S44.86,37.16,59.82,37.16Z"/><path fill="#ccd6e4" d="M45.2,66.34l-7,4.69-5.39-7a41.68,41.68,0,0,1,4.36-1.12c1.24-.25,2.48-.45,3.7-.58Z"/><polygon fill="#488bc9" points="48.68 68.69 47.3 73.31 43.09 73.31 41.71 68.69 45.2 66.34 48.68 68.69"/><path fill="#3a6fa1" d="M40.85,80.35l2.24-7H47.3l2.26,7.07A36.27,36.27,0,0,1,40.85,80.35Z"/><path fill="#ccd6e4" d="M45.2,66.34l7,4.69,5.39-7a41.51,41.51,0,0,0-4.35-1.12c-1.25-.25-2.48-.45-3.71-.58Z"/><rect width="109.12" height="8.89" x="9.44" y="109.87" fill="#4b5aa7"/><path fill="#faa819" d="M21.39 94.05H33.91a2.39 2.39 0 012.39 2.39v13.43a0 0 0 010 0H19a0 0 0 010 0V96.44A2.39 2.39 0 0121.39 94.05zM49.12 86.77H61.64A2.39 2.39 0 0164 89.16v20.71a0 0 0 010 0H46.73a0 0 0 010 0V89.16A2.39 2.39 0 0149.12 86.77zM75.62 79.15H88.14a2.39 2.39 0 012.39 2.39v28.33a0 0 0 010 0H73.23a0 0 0 010 0V81.54A2.39 2.39 0 0175.62 79.15z"/><path fill="#26a98e" d="M99.63,65.46h12.52a2.39,2.39,0,0,1,2.39,2.39v42a0,0,0,0,1,0,0H97.24a0,0,0,0,1,0,0v-42A2.39,2.39,0,0,1,99.63,65.46Z"/><circle cx="105.89" cy="23.64" r="14.81" fill="#faa819"/><path fill="#fcea39" d="M106.83,15.36l1.34,4.14a1,1,0,0,0,1,.68h4.35a1,1,0,0,1,.58,1.8l-3.52,2.56a1,1,0,0,0-.36,1.1l1.34,4.14A1,1,0,0,1,110,30.89l-3.52-2.56a1,1,0,0,0-1.17,0l-3.52,2.56a1,1,0,0,1-1.52-1.11l1.34-4.14a1,1,0,0,0-.36-1.1L97.72,22a1,1,0,0,1,.58-1.8h4.35a1,1,0,0,0,.95-.68l1.34-4.14A1,1,0,0,1,106.83,15.36Z"/><path fill="#231f20" d="M45.34,82.13A37.4,37.4,0,1,0,8.73,37.06a1.5,1.5,0,0,0,2.94.62,34.4,34.4,0,1,1,57.21,32.1,11.9,11.9,0,0,0-5.22-5.07A46.58,46.58,0,0,0,51,61V59.73a16.15,16.15,0,0,0,9.81-11,6.57,6.57,0,0,0,3.86-10.94V32.42A16.7,16.7,0,0,0,48,15.74h-5.3A16.7,16.7,0,0,0,26,32.42V37.5a6.51,6.51,0,0,0-2,4.73,6.58,6.58,0,0,0,5.67,6.51,16.38,16.38,0,0,0,9.72,11V61a46.52,46.52,0,0,0-12.72,3.76,11.9,11.9,0,0,0-5.06,4.85A34.19,34.19,0,0,1,11,47.07a1.5,1.5,0,1,0-3,.2A37.5,37.5,0,0,0,45.34,82.13Zm-5-18.27c.1.1,2.58,2.43,2.42,2.29L38.56,69l-3.19-4.17A42.82,42.82,0,0,1,40.38,63.86ZM48,60.56v1.07l-2.8,2.65-2.81-2.66V60.56A15.77,15.77,0,0,0,48,60.56Zm-1.07,8.76-.75,2.49h-2l-.74-2.49,1.73-1.17Zm.66-3.17L50,63.86a40.13,40.13,0,0,1,5,1L51.83,69ZM42.85,79l1.34-4.22h2l1.35,4.24A30.89,30.89,0,0,1,42.85,79ZM66.53,71.8A34.28,34.28,0,0,1,50.6,78.73L48.87,73.3l.67-2.23,1.78,1.2a1.5,1.5,0,0,0,2-.33l4.75-6.2c1.43.49,2.86,1,4.28,1.68A8.8,8.8,0,0,1,66.53,71.8ZM61.3,45.48c0-.69,0-.77,0-6.48a3.56,3.56,0,0,1,0,6.48ZM29,32.42A13.7,13.7,0,0,1,42.69,18.74H48A13.7,13.7,0,0,1,61.67,32.42v3.5c-1.12-.33-15.61.11-20.74-7.13a1.5,1.5,0,0,0-1.42-.64,1.52,1.52,0,0,0-1.22,1c0,.06-2.57,6.55-7.72,6.55a7.43,7.43,0,0,0-1.56.19Zm-2,9.81A3.53,3.53,0,0,1,29,39l.06,0c0,5.28,0,5.49,0,6.5A3.61,3.61,0,0,1,27,42.23ZM32.34,47a12.93,12.93,0,0,1-.27-2.67V38.54c3.53-.58,6.23-3.21,8-6.28,4.75,4.37,11.77,6.15,18.25,6.38v6A13.12,13.12,0,0,1,45.07,57.81,13.33,13.33,0,0,1,32.34,47ZM28,67.45c1.43-.64,2.89-1.19,4.36-1.69L37,71.94a1.5,1.5,0,0,0,2,.33l1.79-1.2.66,2.23-1.71,5.37a34.27,34.27,0,0,1-15.86-7A8.69,8.69,0,0,1,28,67.45Z"/><path fill="#231f20" d="M37.36 39.4a1.5 1.5 0 00-1.5 1.5v1.33a1.5 1.5 0 103 0V40.9A1.5 1.5 0 0037.36 39.4zM53 43.73a1.5 1.5 0 001.5-1.5V40.9a1.5 1.5 0 00-3 0v1.33A1.5 1.5 0 0053 43.73zM45.2 51.15A7.35 7.35 0 0049 50a1.5 1.5 0 10-1.54-2.57 4.06 4.06 0 01-4.54 0A1.5 1.5 0 1041.39 50 7.32 7.32 0 0045.2 51.15zM118.56 108.37H116V67.85A3.89 3.89 0 00112.15 64H99.63a3.89 3.89 0 00-3.89 3.89v40.52H92V81.54a3.9 3.9 0 00-3.89-3.89H75.62a3.89 3.89 0 00-3.89 3.89v26.83h-6.2V89.16a3.89 3.89 0 00-3.89-3.89H49.12a3.9 3.9 0 00-3.89 3.89v19.21H37.8V96.44a3.9 3.9 0 00-3.89-3.89H21.39a3.89 3.89 0 00-3.89 3.89v11.93H9.44a1.5 1.5 0 00-1.5 1.5v8.89a1.5 1.5 0 001.5 1.5H77a1.5 1.5 0 000-3h-66v-5.89H117.06v5.89h-7.85a1.5 1.5 0 000 3h9.35a1.5 1.5 0 001.5-1.5v-8.89A1.5 1.5 0 00118.56 108.37zM98.74 67.85a.89.89 0 01.89-.89h12.52a.88.88 0 01.88.89v40.52H98.74zm-24 13.69a.89.89 0 01.89-.89H88.14a.89.89 0 01.89.89v26.83H74.73zm-26.5 7.62a.89.89 0 01.89-.89H61.64a.89.89 0 01.89.89v19.21H48.23zM20.5 96.44a.89.89 0 01.89-.89H33.91a.89.89 0 01.89.89v11.93H20.5z"/><path fill="#231f20" d="M99.35 117.26H86.81a1.5 1.5 0 000 3H99.35a1.5 1.5 0 000-3zM105.89 40A16.31 16.31 0 1089.57 23.64 16.33 16.33 0 00105.89 40zm0-29.62A13.31 13.31 0 1192.57 23.64 13.32 13.32 0 01105.89 10.33z"/><path fill="#231f20" d="M96.84 23.19l3.22 2.34-1.23 3.79a2.49 2.49 0 003.83 2.78l3.23-2.34 3.22 2.35a2.5 2.5 0 003.83-2.79l-1.23-3.79 3.22-2.34a2.49 2.49 0 00-1.46-4.51h-4l-1.23-3.78a2.49 2.49 0 00-4.74 0l-1.23 3.78h-4A2.5 2.5 0 0096.84 23.19zm5.81-1.51A2.47 2.47 0 00105 20l.87-2.65.86 2.65a2.47 2.47 0 002.37 1.72h2.78l-2.25 1.64a2.5 2.5 0 00-.91 2.79l.86 2.65-2.25-1.64a2.48 2.48 0 00-2.93 0l-2.25 1.64.86-2.65a2.5 2.5 0 00-.91-2.79l-2.25-1.64zM97.24 59.05a1.5 1.5 0 000 3h17.29a1.5 1.5 0 000-3h-7.14V48.5l4.78 6.33A1.5 1.5 0 00114.56 53l-7.48-9.9a1.49 1.49 0 00-2.39 0L97.21 53a1.5 1.5 0 002.39 1.81l4.79-6.33V59.05z"/></svg>