<svg xmlns="http://www.w3.org/2000/svg" viewBox="0 0 48 48"><path fill="#58bf97" d="M6.1 23.8v-19c0-1.1.9-2 2-2h10l-1.3 4-6.9 14.1-3.8 2.9z"/><path fill="#38a378" d="M17 6.8h-4c0 1.7-1.3 3-3 3v11h3.1l3.9-14z"/><path fill="#58bf97" d="m13 20.6 2-5.9 2-6 2-6.3c.3-1 1.5-1.6 2.5-1.3l17.1 5.7c1 .3 1.6 1.5 1.3 2.5l-3.8 11.4"/><path fill="#a15b4c" d="M38 20.9H10c-2.2 0-4 1.8-4 4v18c0 2.2 1.8 4 4 4h28c2.2 0 4-1.8 4-4v-18c0-2.2-1.8-4-4-4z"/><path fill="#fec367" d="M41 40.9h-8.1c-2.2 0-3.9-1.8-3.9-4s1.7-4 3.9-4H41"/><path fill="#010101" d="M17.2 21.8c-.1 0-.2 0-.3-.1-.5-.2-.8-.7-.6-1.3L20.4 8c.2-.5.7-.8 1.3-.6 1 .3 2.2-.2 2.5-1.3.1-.3.3-.5.5-.6.2-.1.5-.1.8-.1l7.6 2.5c.5.2.8.7.6 1.3-.3 1 .2 2.2 1.3 2.5.3.1.5.3.6.5.1.2.1.5.1.8l-2.6 8c-.2.5-.7.8-1.3.6-.5-.2-.8-.7-.6-1.3l2.4-7.1c-1.2-.8-1.9-2.2-1.8-3.6l-5.9-2c-.8 1.2-2.2 1.9-3.6 1.8l-3.8 11.5c-.5.6-.9.9-1.3.9z"/><path fill="#38a378" d="m31.9 20.8 2.6-8c-1.6-.5-2.4-2.2-1.9-3.8L25 6.5c-.5 1.6-2.2 2.4-3.8 1.9l-.2.7-2 5.9-1.9 5.8"/><circle cx="27.3" cy="12.5" r="2" fill="#060707" transform="rotate(-71.652 27.252 12.543)"/><circle cx="33" cy="36.8" r="1" fill="#060707"/><path fill="#060707" d="M38 19.8h-.5l3.4-10.1c.3-.8.2-1.6-.2-2.3-.4-.7-1-1.3-1.7-1.5L21.9.2c-.8-.2-1.6-.2-2.3.2-.6.3-1.1.8-1.4 1.4H8c-1.7 0-3 1.4-3 3l.1 19v.1c-.1.3-.1.6-.1.9v18c0 2.8 2.2 5 5 5h28c2.8 0 5-2.2 5-5v-18c0-2.8-2.2-5-5-5zm-18-17c.1-.3.3-.5.5-.6.2-.1.5-.2.7-.1l17.1 5.7c.3.1.5.3.6.5.1.2.1.5 0 .7l-3.6 10.8h-2.1l2.2-6.6c.1-.3.1-.5-.1-.8-.1-.2-.3-.4-.6-.5-1-.3-1.6-1.5-1.3-2.5.2-.5-.1-1.1-.6-1.3l-7.6-2.5c-.3-.1-.5-.1-.8.1-.2.1-.4.3-.5.6-.3 1-1.5 1.6-2.5 1.3-.5-.2-1.1.1-1.3.6l-3.9 11.7h-2.1L20 2.8zm11.2 17H18.5l3.4-10.2c1.4.1 2.8-.6 3.6-1.8l5.9 2c-.1 1.4.6 2.8 1.8 3.6l-2 6.4zm-19 0H11v-9.1c1.4-.4 2.5-1.5 2.9-2.9h2.3l-4 12zM8 3.8h9.5l-.7 2H13c-.3 0-.5.1-.7.3-.2.2-.3.4-.3.7 0 1.1-.9 2-2 2-.6 0-1 .4-1 1v10.1c-.7.1-1.4.5-2 .9v-16c0-.5.4-1 1-1zm33 36h-8.1c-1.6 0-2.9-1.3-2.9-3s1.3-3 2.9-3H41v6zm0-8h-8.1c-2.7 0-4.9 2.2-4.9 5s2.2 5 4.9 5H41v1c0 1.7-1.3 3-3 3H10c-1.7 0-3-1.3-3-3v-18c0-1.7 1.3-3 3-3h28c1.7 0 3 1.3 3 3v7z"/></svg>